<?xml version="1.0" encoding="UTF-8" standalone="no"?>
<!-- Created with Inkscape (http://www.inkscape.org/) -->

<svg
   width="188.01068mm"
   height="40.182804mm"
   viewBox="0 0 188.01068 40.182804"
   version="1.1"
   id="svg1"
   sodipodi:docname="moments_text.svg"
   inkscape:version="1.3.2 (091e20e, 2023-11-25)"
   xmlns:inkscape="http://www.inkscape.org/namespaces/inkscape"
   xmlns:sodipodi="http://sodipodi.sourceforge.net/DTD/sodipodi-0.dtd"
   xmlns="http://www.w3.org/2000/svg"
   xmlns:svg="http://www.w3.org/2000/svg">
  <sodipodi:namedview
     id="namedview1"
     pagecolor="#ffffff"
     bordercolor="#000000"
     borderopacity="0.25"
     inkscape:showpageshadow="2"
     inkscape:pageopacity="0.0"
     inkscape:pagecheckerboard="0"
     inkscape:deskcolor="#d1d1d1"
     inkscape:document-units="mm"
     inkscape:zoom="1.2623285"
     inkscape:cx="355.29578"
     inkscape:cy="75.653839"
     inkscape:window-width="1424"
     inkscape:window-height="1212"
     inkscape:window-x="0"
     inkscape:window-y="25"
     inkscape:window-maximized="0"
     inkscape:current-layer="layer1">
    <inkscape:page
       x="0"
       y="0"
       width="188.01068"
       height="40.182804"
       id="page2"
       margin="0"
       bleed="0" />
  </sodipodi:namedview>
  <defs
     id="defs1" />
  <g
     inkscape:label="Layer 1"
     inkscape:groupmode="layer"
     id="layer1"
     transform="translate(-11.824,-194.86343)">
    <path
       style="font-weight:bold;font-size:50.8px;font-family:'FONTSPRING DEMO - Blue Vinyl';-inkscape-font-specification:'FONTSPRING DEMO - Blue Vinyl Bold';fill:#50554a;stroke-width:0.264583"
       d="m 66.738799,223.51464 c 0,1.524 -2.1336,4.7752 -3.8608,4.7752 -0.254,0 -0.508,-0.1016 -0.762,-0.254 -0.6096,-0.4572 -0.8128,-2.7432 -0.8128,-5.7912 0,-1.8796 0.0508,-4.064 0.1524,-6.2484 0.1016,-2.8448 0.254,-5.6388 0.254,-7.8232 0,-1.1176 -0.0508,-2.0828 -0.1524,-2.7432 -0.3048,-2.286 -1.524,-4.826 -3.2004,-6.604 -1.2192,-1.3208 -2.6924,-2.1336 -4.1656,-2.1336 -0.8128,0 -1.5748,0.2032 -2.3876,0.762 -2.794,1.9812 -6.2484,18.9484 -6.4008,19.812 0,-0.1524 -0.1524,-10.5156 -1.2192,-15.0876 -0.5588,-2.54 -2.4892,-4.8768 -4.572,-6.1976 -1.1176,-0.7112 -2.286,-1.1176 -3.3528,-1.1176 -0.8128,0 -1.5748,0.254 -2.1844,0.8128 -1.6256,1.4732 -3.048,5.842 -4.1656,10.5156 -1.4732,6.1468 -2.1844,11.176 -2.7432,14.6812 0.2032,-2.7432 0.762,-8.7376 0.762,-14.0716 0,-1.5748 -0.0508,-2.9972 -0.2032,-4.0132 -0.5588,-4.064 -4.4704,-6.5024 -7.5184,-6.5024 -0.3556,0 -0.7112,0.0508 -1.0668,0.1016 -3.0988,0.6604 -6.6548,3.9624 -7.3152,5.2832 0.4064,1.016 1.016,1.8796 2.3368,1.8796 0.3048,0 0.6604,-0.0508 1.0668,-0.1524 2.3876,-0.6604 3.9624,-2.6416 5.2324,-2.6416 0.2032,0 0.4064,0.0508 0.6096,0.2032 0.3048,0.2032 0.4064,1.2192 0.4064,2.794 0,2.5908 -0.3048,6.7056 -0.5588,10.922 -0.2032,3.2004 -0.3556,6.4516 -0.3556,9.1948 0,2.2352 0.1016,4.1148 0.4064,5.2832 0.508,1.9812 1.7272,3.4544 3.0988,4.4196 1.3716,0.9652 2.8448,1.4732 3.9116,1.4732 0.3048,0 0.5588,-0.0508 0.762,-0.1016 0,-2.1844 1.5748,-11.0744 3.4036,-19.304 1.778,-7.9756 3.81,-15.4432 4.9784,-15.4432 1.3716,0 1.4732,7.62 1.4732,14.3764 0,7.7724 0,11.1252 0.254,12.5476 0.3556,2.1336 1.4732,3.7084 2.8956,4.6736 1.2192,0.8636 2.6924,1.27 4.0132,1.27 0.4064,0 0.762,0 1.1176,-0.1016 -0.0508,-0.254 -0.0508,-0.6096 -0.0508,-1.016 0,-3.2512 1.3208,-10.8204 2.9464,-17.526 1.5748,-6.7056 3.4036,-12.5476 4.4196,-12.5476 0.8636,0 1.016,5.1816 1.016,5.6388 0,1.9812 -0.3556,11.7856 -0.3556,12.954 0,2.9972 0.1524,5.6388 0.6604,7.2136 1.1684,3.6576 4.1148,5.08 6.4516,5.08 3.4036,0 6.7564,-3.6576 6.7564,-6.858 0,-1.3208 -0.8636,-2.3876 -1.9812,-2.3876 z m 24.993575,-3.7592 c 0.762,-1.0668 1.0668,-2.032 1.0668,-2.794 0,-1.5748 -1.2192,-2.54 -1.9304,-2.8956 -0.3048,1.1176 -0.9652,2.032 -1.8288,2.7432 -0.9652,0.762 -2.2352,1.2192 -3.556,1.524 -0.1016,-2.1844 -0.508,-4.2672 -1.0668,-5.9436 -0.8128,-2.54 -2.54,-4.4704 -5.08,-5.334 -1.0668,-0.3556 -2.1844,-0.5588 -3.302,-0.5588 -0.9652,0 -1.9304,0.1524 -2.794,0.508 -0.8636,0.1524 -1.778,0.5588 -2.7432,1.27 -3.301999,2.4384 -4.013199,7.9756 -4.013199,11.0744 0,3.048 0.6604,6.1468 2.032,8.6868 1.777999,3.2004 5.435599,4.6228 8.635999,4.6228 1.4732,0 2.8956,-0.3048 3.9116,-0.9144 2.4384,-1.4732 3.81,-4.9784 4.2672,-8.8392 2.6924,-0.4064 5.1308,-1.4224 6.4008,-3.1496 z m -14.8844,-2.4892 c -1.2192,-1.0668 -2.1336,-2.794 -2.1336,-4.1148 0,-0.9144 0.4064,-1.9304 1.2192,-2.286 0.254,-0.1016 0.4572,-0.1016 0.7112,-0.1016 1.6256,0 2.8956,1.778 3.3528,3.048 0.3556,1.0668 0.5588,2.3876 0.5588,3.7592 0,0.3556 -0.0508,0.6604 -0.0508,1.016 -1.6256,-0.2032 -2.9464,-0.6604 -3.6576,-1.3208 z m 2.9972,5.6388 c -0.3556,1.524 -1.524,5.7912 -3.2512,5.7912 -0.9144,0 -1.7272,-1.1176 -2.286,-2.9464 -0.4572,-1.4224 -0.7112,-3.2004 -0.762,-5.1816 0.8128,0.6096 1.8288,1.1176 2.9464,1.524 1.0668,0.3556 2.1844,0.6604 3.3528,0.8128 z m 42.011616,9.7536 c 2.0828,-0.6096 4.572,-3.048 5.2832,-5.588 0.1524,-0.4572 0.2032,-0.8636 0.2032,-1.2192 0,-1.5748 -1.0668,-2.4384 -1.8796,-2.4384 -0.1016,0.5588 -0.6096,1.8288 -1.27,2.9972 -0.7112,1.27 -1.6764,2.3368 -2.5908,2.3368 -0.254,0 -0.4572,-0.0508 -0.7112,-0.2032 -0.508,-0.3048 -0.6096,-1.778 -0.6096,-3.7592 0,-1.524 0.0508,-3.302 0.1524,-5.08 0.1016,-1.5748 0.1524,-3.2004 0.1524,-4.5212 0,-1.2192 -0.0508,-2.2352 -0.254,-2.8448 -0.6096,-2.0828 -1.8796,-3.3528 -3.2512,-4.0132 -0.9144,-0.4572 -1.8796,-0.6604 -2.7432,-0.6604 -0.8636,0 -1.6764,0.2032 -2.1336,0.5588 -1.016,0.7112 -1.9304,2.0828 -2.6416,3.7084 -0.8128,1.8796 -1.5748,4.3688 -2.2352,6.8072 0.0508,-0.254 0.0508,-0.8128 0.0508,-1.524 0,-1.524 -0.1524,-3.81 -0.8128,-5.6388 -0.762,-2.1336 -3.048,-3.81 -5.334,-3.81 -0.9652,0 -1.879599,0.3048 -2.743199,0.9652 -2.1844,1.778 -3.81,9.8552 -4.064,11.176 0.1524,-1.6764 0.3048,-3.3528 0.3048,-5.0292 0,-1.6764 -0.1524,-3.3528 -0.5588,-4.2672 -0.762,-1.5748 -2.336799,-2.4384 -3.911599,-2.4384 -0.5588,0 -1.1684,0.1016 -1.6764,0.3556 0.254,0.8636 0.3556,2.3876 0.3556,4.318 0,2.2352 -0.1016,5.0292 -0.254,7.5692 -0.1524,2.4892 -0.254,4.8768 -0.254,6.5024 0,0.6604 0,1.2192 0.0508,1.5748 0.254,2.3876 2.9972,3.6576 4.825999,3.6576 0.5588,0 1.016,-0.1016 1.3208,-0.3556 -0.0508,-0.1524 -0.1016,-0.4064 -0.1016,-0.762 0,-1.6764 0.762,-5.2832 1.778,-8.89 1.3716,-4.8768 3.2004,-9.652 4.317999,-9.652 0.762,0 0.9652,2.032 0.9652,4.6228 0,1.4732 -0.1016,3.1496 -0.1524,4.7244 -0.1016,2.54 -0.3048,5.0292 -0.3048,6.5024 0,0.4064 0,0.7112 0.0508,0.9652 0.2032,1.778 2.286,2.7432 4.064,2.7432 0.7112,0 1.4224,-0.1524 1.9304,-0.508 -0.0508,-0.1016 -0.0508,-0.3048 -0.0508,-0.508 0,-1.4732 0.8636,-5.2832 1.9812,-9.0932 1.4224,-4.7752 3.302,-9.4996 4.3688,-9.4996 0.762,0 0.9144,1.4224 0.9144,3.1496 0,2.032 -0.254,4.7244 -0.254,7.3152 0,1.778 0.1524,3.5052 0.508,4.8768 0.762,2.9972 3.6068,5.0292 6.096,5.0292 0.4064,0 0.762,-0.0508 1.1176,-0.1524 z m 16.45917,-15.24 c 1.2192,-0.9652 2.794,-2.7432 2.794,-5.08 0,-0.762 -0.2032,-1.6256 -0.6096,-2.54 -0.9652,-2.0828 -3.8608,-3.6576 -6.9088,-3.6576 -2.54,0 -5.1816,1.0668 -7.0612,3.81 -1.778,2.5908 -2.6416,6.1976 -2.6416,9.7028 0,3.4544 0.8636,6.858 2.6416,9.0932 2.286,2.8956 5.588,3.9116 8.4836,3.9116 1.3716,0 2.6924,-0.254 3.7084,-0.6096 3.556,-1.27 7.0612,-4.826 7.0612,-8.3312 0,-1.4732 -0.8636,-2.6416 -1.9304,-2.6416 -0.1016,0 -0.2032,0.0508 -0.3048,0.0508 -0.3048,2.286 -1.524,4.4196 -3.1496,5.7912 -1.2192,1.0668 -2.6416,1.6764 -4.0132,1.6764 -1.2192,0 -2.4384,-0.508 -3.4544,-1.6256 -1.4224,-1.5748 -2.0828,-4.2672 -2.1336,-7.0612 2.5908,-0.1016 5.3848,-0.762 7.5184,-2.4892 z m -3.81,-7.9248 c 0.8128,0 1.4224,0.8636 1.4224,1.9812 0,1.6256 -0.8128,3.048 -2.032,3.8608 -1.1176,0.7112 -1.9812,1.0668 -2.9464,1.3208 0.2032,-1.6256 0.5588,-3.0988 1.016,-4.318 0.6096,-1.5748 1.4732,-2.6924 2.54,-2.8448 z m 32.56276,14.0716 c -0.1016,1.1176 -0.762,2.4384 -1.5748,3.5052 -0.762,0.9652 -1.6256,1.6764 -2.3876,1.6764 -0.2032,0 -0.4064,-0.1016 -0.6096,-0.2032 -0.4064,-0.254 -0.5588,-1.3208 -0.5588,-2.794 0,-1.3208 0.1524,-2.9972 0.254,-4.7244 0,-0.254 0.0508,-0.508 0.0508,-0.762 0.1524,-1.9812 0.254,-4.0132 0.254,-5.6896 0,-1.27 -0.0508,-2.3876 -0.254,-3.048 -0.7112,-2.2352 -3.4036,-4.1656 -5.9436,-4.1656 -0.9144,0 -1.8288,0.254 -2.6416,0.8636 -2.0828,1.5748 -4.0132,7.9248 -4.826,11.2268 0.1524,-1.27 0.4572,-3.2512 0.4572,-5.6388 0,-1.27 -0.1016,-2.4892 -0.4064,-3.2512 -0.7112,-1.778 -2.54,-3.048 -4.2164,-3.048 -0.4064,0 -0.8128,0.1016 -1.2192,0.254 0.2032,0.7112 0.254,1.7272 0.254,3.048 0,2.032 -0.1524,4.6736 -0.3556,7.2136 0,0.2032 -0.0508,0.4064 -0.0508,0.6096 -0.2032,2.3876 -0.3556,4.7244 -0.3556,6.5024 0,0.7112 0.0508,1.3208 0.1016,1.8288 0.254,1.9304 1.27,3.4544 2.3876,4.3688 0.8128,0.6604 1.6256,1.016 2.2352,1.016 0.4572,0 0.762,-0.2032 0.762,-0.7112 0,-1.4732 0.9144,-5.2832 2.1844,-9.1948 1.6764,-5.1816 3.81,-10.4648 4.9784,-10.4648 0.5588,0 0.762,0.8636 0.762,2.2352 0,1.524 -0.254,3.7084 -0.4064,5.8928 -0.1016,1.1684 -0.1524,2.3876 -0.1524,3.556 0,1.5748 0.1016,3.0988 0.508,4.2672 1.4224,4.4196 5.0292,4.8768 6.4516,4.8768 2.1336,0 5.334,-3.048 6.1468,-5.588 0.1524,-0.4572 0.2032,-0.9144 0.2032,-1.27 0,-1.5748 -1.2192,-2.3876 -2.032,-2.3876 z m 7.01039,9.144 c 3.0988,0 5.8928,-1.7272 7.2136,-5.1308 0.2032,-0.6096 0.3048,-1.1684 0.3048,-1.6256 0,-1.6764 -1.2192,-2.54 -2.032,-2.54 -0.1524,1.4224 -0.8128,2.8448 -1.6764,3.9116 -0.8128,1.016 -1.8288,1.6256 -2.7432,1.6256 -0.4064,0 -0.762,-0.1016 -1.1176,-0.3556 -0.762,-0.5588 -1.1176,-2.7432 -1.1176,-5.9944 0,-3.2004 0.3556,-6.6548 0.7112,-9.8044 0.1016,-0.8636 0.3556,-1.8288 0.3556,-2.6416 1.016,0 1.9304,-0.1016 2.6416,-0.2032 1.1684,-0.1524 1.8796,-0.5588 2.2352,-1.0668 0.2032,-0.3048 0.3048,-0.6096 0.3048,-0.9652 0,-0.4572 -0.1524,-0.9144 -0.3556,-1.3716 -0.8128,0.1524 -2.5908,0.1524 -4.572,0.1524 0.0508,-0.762 0.0508,-1.4732 0.0508,-2.1336 0,-1.27 -0.0508,-2.2352 -0.2032,-2.6924 -0.6096,-2.1336 -1.4732,-3.5052 -2.54,-4.2164 -0.6096,-0.4064 -1.27,-0.6604 -1.8796,-0.6604 -0.5588,0 -1.1176,0.254 -1.3716,0.7112 -0.508,0.9144 -0.6096,1.8796 -0.6096,3.048 0,0.8128 0.0508,1.7272 0.0508,2.8448 0,0.9144 0,1.9304 -0.0508,3.1496 -1.2192,0.0508 -2.2352,0.1524 -2.8448,0.3556 -0.508,0.1524 -0.7112,0.6096 -0.7112,1.1176 0,0.254 0.0508,0.4572 0.1016,0.7112 0.1016,0.6096 0.3048,1.1176 0.3048,1.1176 0,0 1.3208,0.0508 3.048,0.1016 -0.1524,3.302 -0.254,6.5532 -0.3048,9.398 -0.0508,1.1176 -0.0508,2.1336 -0.0508,3.0988 0,2.4384 0.1016,4.2164 0.4064,5.08 0.9144,2.6924 2.6416,4.9784 6.4516,4.9784 z m 8.07718,-25.0444 c -0.2032,0.5588 -0.254,1.1176 -0.254,1.6764 0,0.5588 0.0508,1.1684 0.2032,1.7272 -0.3556,1.9304 -0.8636,3.9624 -1.4732,5.842 -0.6096,1.9304 -1.3208,3.81 -2.032,5.334 -0.8128,0.254 -2.3876,1.5748 -2.3876,3.7084 0,0.6604 0.1524,1.3716 0.508,2.1844 1.0668,2.286 3.81,3.9624 6.8072,4.7244 1.4732,0.3556 3.2004,0.6604 5.0292,0.6604 2.2352,0 4.572,-0.4572 6.7056,-1.7272 2.6416,-1.5748 4.572,-3.4544 4.572,-5.7404 0,-2.032 -1.4224,-2.4384 -1.9812,-2.54 -0.1524,0.8128 -0.8128,1.8796 -1.524,2.6924 -0.9144,1.0668 -1.8796,1.9812 -3.0988,2.6416 0.762,-1.4732 1.016,-2.9972 1.016,-4.4704 0,-2.3876 -0.7112,-4.6228 -1.4224,-6.096 -0.8128,-1.778 -2.286,-4.2164 -3.6576,-6.9596 -0.2032,-0.4064 -0.3048,-0.8128 -0.3048,-1.1684 0,-1.2192 0.9144,-2.2352 2.0828,-2.794 0.2032,-0.1016 0.3048,-0.254 0.3048,-0.4064 0,-0.6096 -1.1684,-1.524 -2.8956,-1.778 -0.5588,-0.1016 -1.1176,-0.1016 -1.6256,-0.1016 -2.2352,0 -3.9624,0.7112 -4.572,2.5908 z m 2.3876,8.9408 c 1.5748,3.0988 2.3368,5.08 2.794,6.9088 0.254,1.0668 0.4064,2.1336 0.4064,2.9972 0,1.5748 -0.6096,2.7432 -2.1336,2.7432 -1.524,0 -3.4036,-1.2192 -4.7752,-2.794 0.6604,-1.27 1.3208,-2.8956 1.9812,-4.6228 0.6096,-1.6764 1.2192,-3.5052 1.7272,-5.2324 z"
       id="text1"
       aria-label="Moments" />
  </g>
</svg>
